<?xml version="1.0" encoding="utf-8"?>
<svg width="300" height="47" viewBox="0 0 300 47" fill="none" xmlns="http://www.w3.org/2000/svg">
  <g>
    <g transform="translate(0 0)">
      <path d="M28.9643 0C33.3832 0 36.9643 3.58112 36.9643 8L36.9643 29.7679C36.9643 34.1867 33.3832 37.7679 28.9643 37.7679L8 37.7679C3.58112 37.7679 0 34.1867 0 29.7679L0 8C0 3.58112 3.58112 0 8 0L28.9643 0Z" fill="#6CBBDC" transform="matrix(1 0 0 1 4.252 4.74)" />
      <path d="M28.7501 4.5748e-09C33.514 -5.12215e-05 37.58 1.72058 40.9482 5.16189C44.3163 8.60295 46.0003 12.7573 46 17.625L46 29.3751C46 34.2428 44.3161 38.3972 40.9482 41.8382C37.58 45.2794 33.514 47 28.7501 47L17.25 47C12.4861 47 8.42007 45.2794 5.05192 41.8382C1.68397 38.3971 3.038e-13 34.2428 3.038e-13 29.3751L3.038e-13 17.625C3.038e-13 12.7573 1.68397 8.60295 5.05192 5.16189C8.42007 1.72063 12.4861 4.5748e-09 17.25 4.5748e-09L28.7501 4.5748e-09L28.7501 4.5748e-09ZM28.75 8.39284L17.25 8.39284C14.7546 8.39284 12.6246 9.29407 10.8605 11.0965C9.09626 12.8989 8.21427 15.0751 8.21427 17.625L8.21427 29.375C8.21427 31.9249 9.09626 34.101 10.8605 35.9035C12.6246 37.7059 14.7544 38.6071 17.25 38.6071L28.75 38.6071C31.2456 38.6071 33.3754 37.7059 35.1396 35.9035C36.9037 34.1011 37.7857 31.9249 37.7857 29.375L37.7857 17.625C37.7857 15.0751 36.9037 12.8989 35.1396 11.0965C33.3754 9.29407 31.2456 8.39284 28.75 8.39284L28.75 8.39284Z" fill="#6CBBDC" fill-rule="evenodd" />
      <path d="M5.11783 0C8.992 0 10.3736 2.58685 10.3736 2.58685C10.6574 3.08093 11.2839 3.24909 11.773 2.96246C12.2621 2.67583 12.4286 2.04295 12.1449 1.54888C12.1449 1.54888 11.7742 0.961912 11.0393 0.264542C11.5662 0.121553 12.2959 0 13.3064 0C15.0976 0 16.3108 0.641292 17.1467 1.59129C17.9827 2.54129 18.4242 3.84853 18.4242 5.16967C18.4242 7.60121 18.0352 8.92373 17.6006 9.98595C17.1659 11.0482 16.5841 11.936 16.3871 13.2917C16.2097 14.5098 15.9712 16.0099 15.5714 17.1003C15.3714 17.6458 15.1281 18.077 14.9097 18.314C14.6912 18.5509 14.5657 18.6108 14.3299 18.6108C13.666 18.6108 13.4259 18.4159 13.1025 17.9343C12.7791 17.4527 12.5156 16.6468 12.2928 15.7695C12.07 14.8922 11.8878 13.9594 11.5171 13.118C11.3318 12.6974 11.0944 12.284 10.7115 11.9427C10.3771 11.6448 9.91078 11.4424 9.42401 11.3935C9.35426 11.3793 9.28324 11.3726 9.2121 11.3733C9.1403 11.3724 9.0686 11.3792 8.99819 11.3935C8.51215 11.4428 8.04669 11.6452 7.71274 11.9427C7.32977 12.284 7.0924 12.6974 6.90708 13.118C6.53643 13.9594 6.35417 14.8922 6.1314 15.7695C5.90864 16.6468 5.64515 17.4527 5.32175 17.9343C4.99835 18.4159 4.75815 18.6108 4.09427 18.6108C3.85847 18.6108 3.73297 18.5509 3.51451 18.314C3.29606 18.077 3.05279 17.6458 2.85279 17.1003C2.45299 16.0099 2.21452 14.5098 2.03714 13.2917C2.03714 13.2917 2.03714 13.2897 2.03714 13.2897C1.83978 11.9353 1.25809 11.0476 0.823651 9.98595C0.388978 8.92373 0 7.60121 0 5.16967C0 3.84853 0.441484 2.54129 1.27746 1.59129C2.11343 0.641292 3.32659 0 5.11783 0Z" fill="#FFFFFF" transform="matrix(1 0 0 1 14.143 14.219)" />
    </g>
    <path d="M19.5469 5.0625L6.71484 5.0625Q5.09766 5.0625 4.18359 6.11719Q3.375 7.06641 3.375 8.47266L3.375 27.5625Q3.375 28.9336 4.18359 29.8828Q5.09766 30.9375 6.71484 30.9375L20.0039 30.9375Q20.5313 30.9375 20.8477 30.6211Q21.1289 30.3398 21.1289 29.9531Q21.1289 29.5313 20.8477 29.25Q20.5313 28.9688 20.0039 28.9688L7.10156 28.9688Q6.32813 28.9688 5.90625 28.4766Q5.55469 28.0547 5.55469 27.4219L5.55469 18.5273L18.3164 18.5273Q18.8438 18.5273 19.1602 18.2109Q19.4414 17.9297 19.4414 17.543Q19.4414 17.1211 19.1602 16.8398Q18.8438 16.5586 18.3164 16.5586L5.55469 16.5586L5.55469 8.61328Q5.55469 7.94531 5.90625 7.52344Q6.32813 7.03125 7.10156 7.03125L19.5469 7.03125Q20.0391 7.03125 20.3555 6.71484Q20.6367 6.43359 20.6367 6.04688Q20.6367 5.625 20.3555 5.34375Q20.0391 5.0625 19.5469 5.0625ZM25.5586 12.7617L25.5586 30.375Q25.5586 30.9023 25.875 31.2188Q26.1914 31.5 26.6484 31.5Q27.0703 31.5 27.3867 31.2188Q27.7383 30.9023 27.7383 30.375L27.7383 16.6641Q28.3711 15.293 29.5664 14.5195Q30.9023 13.6406 32.625 13.6406Q33.5039 13.6406 33.4688 12.5508Q33.4336 11.4961 32.6602 11.4961Q30.9727 11.4961 29.6367 12.3398Q28.6172 12.9727 27.7383 14.2031L27.7383 12.7617Q27.7383 12.2695 27.3867 11.9883Q27.0703 11.7773 26.6484 11.7773Q26.1914 11.7773 25.875 12.0234Q25.5586 12.3047 25.5586 12.7617ZM43.4531 11.4961Q40.6055 11.4961 38.8477 12.7617Q36.9844 14.0977 36.9844 16.4531Q36.9844 18.6328 38.5313 19.9336Q39.9375 21.1641 43.0664 21.9727Q46.5117 22.8164 47.7773 23.8359Q48.832 24.6445 48.832 26.0859Q48.832 27.6328 47.6016 28.5469Q46.3008 29.5664 44.0156 29.5664Q41.2734 29.5664 40.043 28.5469Q38.8828 27.5977 38.8828 25.7695Q38.8477 25.2773 38.4961 25.0313Q38.1797 24.7852 37.7227 24.8203Q37.2656 24.8203 36.9844 25.1016Q36.6328 25.418 36.668 25.9102Q36.7734 28.6523 38.6367 30.0938Q40.5 31.5352 43.9805 31.5352Q47.4609 31.5352 49.3242 29.918Q51.0469 28.4766 51.0469 26.1211Q51.0469 23.7656 49.6055 22.4297Q48.0938 20.9883 44.4023 20.1445Q41.3789 19.3711 40.2539 18.4922Q39.1992 17.6484 39.1992 16.207Q39.1992 14.9766 40.3945 14.168Q41.5898 13.4297 43.3828 13.4297Q45.7383 13.4297 46.9336 14.3086Q48.0586 15.1172 48.1992 16.6641Q48.2344 17.1563 48.6211 17.4375Q48.9727 17.6836 49.4297 17.6484Q49.9219 17.5781 50.2383 17.2969Q50.5898 16.9453 50.5547 16.4531Q50.3789 14.3086 48.832 13.0078Q47.0039 11.4961 43.4531 11.4961ZM64.2656 11.5664Q60.082 11.5664 57.7266 14.6602Q55.6523 17.4023 55.6523 21.5859Q55.6523 25.7344 57.7266 28.4766Q60.082 31.6055 64.2656 31.6055Q68.4141 31.6055 70.7695 28.4766Q72.8789 25.7344 72.8789 21.5859Q72.8789 17.4023 70.7695 14.6602Q68.4141 11.5664 64.2656 11.5664ZM64.2656 13.5Q67.3594 13.5 69.082 15.9961Q70.6641 18.2109 70.6641 21.5859Q70.6641 24.8906 69.082 27.1406Q67.3594 29.6367 64.2656 29.6367Q61.1367 29.6367 59.3789 27.1406Q57.8672 24.9258 57.8672 21.5859Q57.8672 18.2109 59.3789 15.9961Q61.1367 13.5 64.2656 13.5ZM78.2578 12.9023L78.2578 30.375C78.2578 30.75 78.3633 31.043 78.5742 31.2539Q78.8906 31.5703 79.3477 31.5703Q79.7695 31.5352 80.0859 31.2539C80.3203 31.0195 80.4375 30.7148 80.4375 30.3398L80.4375 17.8242Q81.668 15.5742 83.3203 14.4844Q84.9023 13.4297 86.9063 13.4297Q88.7344 13.4297 89.8242 14.5547Q90.8086 15.5391 90.8086 17.0508L90.8086 30.375Q90.8086 30.9023 91.125 31.2539Q91.4414 31.5352 91.8984 31.5352Q92.3203 31.5352 92.6367 31.2539Q92.9883 30.9023 92.9883 30.375L92.9883 17.0508Q92.9883 14.7656 91.4414 13.2188Q89.7539 11.4961 86.9063 11.4961Q84.6914 11.4961 83.0391 12.4453Q81.457 13.3594 80.4375 15.082L80.4375 12.9023Q80.4375 12.375 80.0859 12.0586Q79.7695 11.7773 79.3477 11.7773Q78.8906 11.7773 78.5742 12.0586Q78.2578 12.375 78.2578 12.9023ZM111.059 26.4023Q110.25 27.8438 108.703 28.6523Q106.98 29.5664 104.555 29.5664Q102.41 29.5664 101.391 28.6523Q100.406 27.8086 100.406 26.0859Q100.406 24.293 101.461 23.3789Q102.551 22.3945 105.188 22.043Q107.824 21.6914 109.336 21.2344Q110.566 20.8477 111.059 20.4258L111.059 26.4023ZM106.242 11.4961Q103.289 11.4961 101.496 12.7969Q99.668 14.168 99.2461 16.875Q99.1406 17.4023 99.457 17.7188Q99.7383 18.0352 100.16 18.0703Q100.617 18.1055 100.934 17.8594Q101.32 17.6133 101.391 17.1563Q101.566 15.3984 102.621 14.4844Q103.816 13.4297 106.207 13.4297Q108.668 13.4297 109.898 14.3438Q111.059 15.2227 111.059 16.9453Q111.059 18.457 110.004 19.0195Q108.914 19.6172 105.152 20.1445Q100.898 20.6719 99.2813 22.5Q98.1914 23.7656 98.1914 26.0859Q98.1914 28.6523 99.7734 30.0586Q101.391 31.5352 104.555 31.5352Q106.875 31.5352 108.703 30.7266Q110.039 30.1289 111.094 29.1094Q111.094 30.1992 111.727 30.6563Q112.5 31.1484 114.504 31.1484Q114.996 31.1484 115.277 30.832Q115.523 30.5508 115.523 30.1641Q115.488 29.7422 115.242 29.4609Q114.961 29.1797 114.539 29.1797Q113.906 29.1797 113.555 28.8281Q113.238 28.5117 113.238 27.9141L113.238 16.7695Q113.238 13.9922 111.199 12.6563Q109.406 11.4961 106.242 11.4961Z" fill="#49A3C4" transform="translate(60 5)" />
    <path d="M6.52832 4.92188Q4.95605 4.92188 4.06738 5.94727Q3.28125 6.87012 3.28125 8.2373L3.28125 26.7969Q3.28125 28.1299 4.06738 29.0527Q4.95605 30.0781 6.52832 30.0781L11.416 30.0781C15.153 30.0781 18.0811 28.8249 20.2002 26.3184Q23.1738 22.8662 23.1738 17.5Q23.1738 12.1338 20.2002 8.68164Q17.0215 4.92188 11.416 4.92188L6.52832 4.92188ZM6.9043 28.1641Q6.15234 28.1641 5.74219 27.6855Q5.40039 27.2754 5.40039 26.6602L5.40039 8.37402Q5.40039 7.72461 5.74219 7.31445Q6.15234 6.83594 6.9043 6.83594L11.416 6.83594Q15.9961 6.83594 18.5938 9.98047Q21.0205 12.8857 21.0205 17.5Q21.0205 22.0801 18.5938 24.9854Q15.9961 28.1641 11.416 28.1641L6.9043 28.1641ZM40.4004 24.8828Q39.5801 26.6602 38.5205 27.5488Q37.1533 28.7451 35.1025 28.7451Q32.5049 28.7451 30.9668 26.3867Q29.6338 24.4043 29.4971 21.499L42.9297 21.499L42.9297 20.9521Q42.9297 16.9531 40.9473 14.1846Q38.7598 11.1768 35.1025 11.1768Q31.4453 11.1768 29.292 14.1846Q27.3438 16.9531 27.3438 20.9521Q27.3438 24.917 29.292 27.6514Q31.4453 30.6592 35.1025 30.6592Q37.7002 30.6592 39.6143 29.3262Q41.4941 28.0615 42.4854 25.6689Q42.6904 25.1563 42.4854 24.7119Q42.3145 24.3359 41.9043 24.1992Q41.46 24.0283 41.0498 24.165Q40.6055 24.3701 40.4004 24.8828ZM29.5654 19.585Q29.7705 17.0898 31.0352 15.2783Q32.5732 13.0566 35.1025 13.0566Q37.6318 13.0566 39.2041 15.3125Q40.4688 17.1582 40.6738 19.585L29.5654 19.585ZM48.0908 12.5439L48.0908 29.5313C48.0908 29.8958 48.1934 30.1807 48.3984 30.3857Q48.7061 30.6934 49.1504 30.6934Q49.5605 30.6592 49.8682 30.3857C50.096 30.1579 50.21 29.8617 50.21 29.4971L50.21 17.3291Q51.4063 15.1416 53.0127 14.082Q54.5508 13.0566 56.499 13.0566Q58.2764 13.0566 59.3359 14.1504Q60.293 15.1074 60.293 16.5771L60.293 29.5313Q60.293 30.0439 60.6006 30.3857Q60.9082 30.6592 61.3525 30.6592Q61.7627 30.6592 62.0703 30.3857Q62.4121 30.0439 62.4121 29.5313L62.4121 16.5771Q62.4121 14.3555 60.9082 12.8516Q59.2676 11.1768 56.499 11.1768Q54.3457 11.1768 52.7393 12.0996Q51.2012 12.9883 50.21 14.6631L50.21 12.5439Q50.21 12.0313 49.8682 11.7236Q49.5605 11.4502 49.1504 11.4502Q48.7061 11.4502 48.3984 11.7236Q48.0908 12.0313 48.0908 12.5439ZM69.3164 7.00684L69.3164 11.7578L67.4707 11.7578Q66.6846 11.7578 66.6846 12.6807Q66.6846 13.6377 67.4707 13.6377L69.3164 13.6377L69.3164 27.3438Q69.3164 28.6768 70.1367 29.5996Q71.0254 30.6592 72.5977 30.6592L74.2041 30.6592Q74.6826 30.6592 74.9902 30.3516Q75.2637 30.0781 75.2637 29.7021Q75.2637 29.292 74.9902 29.0186Q74.6826 28.7451 74.2041 28.7451L72.9736 28.7451Q72.2217 28.7451 71.8115 28.2324Q71.4697 27.8223 71.4697 27.207L71.4697 13.6377L74.2725 13.6377Q75.1611 13.6377 75.1611 12.6807Q75.1611 11.7578 74.2725 11.7578L71.4697 11.7578L71.4697 7.00684Q71.4697 6.49414 71.1279 6.2207Q70.8203 5.98145 70.376 5.98145Q69.9316 5.98145 69.624 6.2207Q69.3164 6.49414 69.3164 7.00684ZM90.9521 25.6689Q90.166 27.0703 88.6621 27.8564Q86.9873 28.7451 84.6289 28.7451Q82.5439 28.7451 81.5527 27.8564Q80.5957 27.0361 80.5957 25.3613Q80.5957 23.6182 81.6211 22.7295Q82.6807 21.7725 85.2441 21.4307Q87.8076 21.0889 89.2773 20.6445Q90.4736 20.2686 90.9521 19.8584L90.9521 25.6689ZM86.2695 11.1768Q83.3984 11.1768 81.6553 12.4414Q79.8779 13.7744 79.4678 16.4063Q79.3652 16.9189 79.6729 17.2266Q79.9463 17.5342 80.3564 17.5684Q80.8008 17.6025 81.1084 17.3633Q81.4844 17.124 81.5527 16.6797Q81.7236 14.9707 82.749 14.082Q83.9111 13.0566 86.2354 13.0566Q88.6279 13.0566 89.8242 13.9453Q90.9521 14.7998 90.9521 16.4746Q90.9521 17.9443 89.9268 18.4912Q88.8672 19.0723 85.21 19.585Q81.0742 20.0977 79.502 21.875Q78.4424 23.1055 78.4424 25.3613Q78.4424 27.8564 79.9805 29.2236Q81.5527 30.6592 84.6289 30.6592Q86.8848 30.6592 88.6621 29.873Q89.9609 29.292 90.9863 28.3008Q90.9863 29.3604 91.6016 29.8047Q92.3535 30.2832 94.3018 30.2832Q94.7803 30.2832 95.0537 29.9756Q95.293 29.7021 95.293 29.3262Q95.2588 28.916 95.0195 28.6426Q94.7461 28.3691 94.3359 28.3691Q93.7207 28.3691 93.3789 28.0273Q93.0713 27.7197 93.0713 27.1387L93.0713 16.3037Q93.0713 13.6035 91.0889 12.3047Q89.3457 11.1768 86.2695 11.1768ZM99.0527 5.33203L99.0527 29.5996Q99.0527 30.0781 99.3604 30.3857Q99.668 30.6592 100.112 30.6592Q100.522 30.6592 100.83 30.3857Q101.172 30.1123 101.172 29.6338L101.172 5.36621Q101.172 4.85352 100.83 4.58008Q100.522 4.34082 100.112 4.34082Q99.668 4.34082 99.3604 4.58008Q99.0527 4.85352 99.0527 5.33203Z" fill="#49A3C4" transform="translate(187 6)" />
  </g>
</svg>