<?xml version="1.0" encoding="utf-8"?>
<svg width="92" height="93" viewBox="0 0 92 93" fill="none" xmlns="http://www.w3.org/2000/svg">
  <g transform="translate(2.5 2.5)">
    <path d="M68 0C78.4948 0 87 8.50516 87 19L87 69C87 79.4948 78.4948 88 68 88L19 88C8.50516 88 0 79.4948 0 69L0 19C0 8.50516 8.50516 0 19 0L68 0Z" fill="#6CBBDC" stroke-width="5" stroke="#6CBBDC" />
    <path d="M13.5684 0C23.8397 0 27.5026 6.78086 27.5026 6.78086C28.2549 8.07598 29.916 8.5168 31.2127 7.76546C32.5095 7.01414 32.9509 5.35515 32.1986 4.06006C32.1986 4.06006 31.2159 2.52144 29.2676 0.693424C30.6643 0.318619 32.5989 0 35.278 0C40.027 0 43.2432 1.681 45.4596 4.17122C47.6759 6.66143 48.8464 10.0881 48.8464 13.5512C48.8464 19.9249 47.8152 23.3916 46.6627 26.176C45.5103 28.9603 43.968 31.2877 43.4455 34.8413C42.9752 38.0343 42.343 41.9664 41.283 44.8247C40.7528 46.2546 40.1079 47.385 39.5287 48.0061C38.9496 48.6271 38.6168 48.7841 37.9916 48.7841C36.2316 48.7841 35.5947 48.2732 34.7373 47.0108C33.88 45.7486 33.1814 43.6359 32.5908 41.3363C32.0002 39.0368 31.517 36.5914 30.5343 34.386C30.043 33.2834 29.4137 32.1998 28.3983 31.3053C27.5117 30.5242 26.2755 29.9938 24.985 29.8655C24.8001 29.8284 24.6118 29.8106 24.4232 29.8125C24.2328 29.8103 24.0427 29.828 23.8561 29.8655C22.5675 29.9947 22.6603 30.0748 22.1107 30.296C21.4875 30.5468 21.3334 30.5253 20.4481 31.3053C19.4328 32.1998 18.8034 33.2834 18.3121 34.386C17.3294 36.5914 16.8463 39.0368 16.2556 41.3363C15.665 43.6359 14.9665 45.7486 14.1091 47.0108C13.2517 48.2732 12.6149 48.7841 10.8547 48.7841C10.2296 48.7841 9.89688 48.6271 9.3177 48.0061C8.73853 47.385 8.09359 46.2546 7.56335 44.8247C6.50339 41.9664 5.87116 38.0343 5.40089 34.8413C5.40089 34.8413 5.40089 34.836 5.40089 34.836C4.87763 31.2858 3.33546 28.9589 2.18367 26.176C1.03126 23.3916 0 19.9249 0 13.5512C0 10.0881 1.17047 6.66143 3.38682 4.17122C5.60315 1.681 8.81948 0 13.5684 0Z" fill="#FFFFFF" transform="translate(19 20)" />
  </g>
</svg>