<svg width="512" height="512" viewBox="0 0 512 512" fill="none" xmlns="http://www.w3.org/2000/svg">
  <rect width="512" height="512" rx="128" fill="#4f46e6"/>
  <path d="M256 128C201.6 128 160 169.6 160 224C160 278.4 201.6 320 256 320C310.4 320 352 278.4 352 224C352 169.6 310.4 128 256 128ZM256 288C218.7 288 192 261.3 192 224C192 186.7 218.7 160 256 160C293.3 160 320 186.7 320 224C320 261.3 293.3 288 256 288Z" fill="white"/>
  <path d="M320 352H192C169.9 352 152 369.9 152 392V448C152 470.1 169.9 488 192 488H320C342.1 488 360 470.1 360 448V392C360 369.9 342.1 352 320 352ZM336 448C336 459.1 327.1 468 316 468H196C184.9 468 176 459.1 176 448V392C176 380.9 184.9 372 196 372H316C327.1 372 336 380.9 336 392V448Z" fill="white"/>
</svg>
